<svg width="311" height="301" viewBox="0 0 311 301" fill="none" xmlns="http://www.w3.org/2000/svg">
<path fill-rule="evenodd" clip-rule="evenodd" d="M132.364 23.9829C173.359 25.5244 214.183 31.6123 245.836 57.5902C280.813 86.2961 312.608 125.448 310.937 170.541C309.298 214.769 273.682 249.371 237.763 275.456C207.447 297.472 169.76 303.337 132.364 300.225C98.4629 297.403 65.2333 285.091 43.2309 259.264C22.6896 235.153 26.8152 201.772 21.8832 170.541C15.2666 128.643 -15.5913 82.6454 9.98159 48.7215C35.954 14.2678 89.1208 22.3568 132.364 23.9829Z" fill="#FFD6AD"/>
<path d="M192.16 70.3943H190.856V34.6688C190.856 31.9534 190.321 29.2646 189.282 26.7559C188.243 24.2472 186.72 21.9677 184.8 20.0475C182.88 18.1274 180.601 16.6042 178.092 15.565C175.584 14.5257 172.895 13.9908 170.179 13.9907H94.4895C89.0057 13.9907 83.7464 16.1692 79.8687 20.0469C75.991 23.9246 73.8125 29.1839 73.8125 34.6678V230.662C73.8125 236.146 75.991 241.405 79.8687 245.283C83.7464 249.161 89.0057 251.339 94.4895 251.339H170.179C175.663 251.339 180.923 249.161 184.8 245.283C188.678 241.405 190.856 236.146 190.856 230.662V95.8244H192.161L192.16 70.3943Z" fill="#3F3D56"/>
<path d="M186.456 34.8129V230.518C186.456 234.613 184.829 238.541 181.933 241.437C179.037 244.333 175.11 245.96 171.014 245.96H94.9615C90.866 245.96 86.9384 244.333 84.0425 241.437C81.1466 238.541 79.5196 234.613 79.5195 230.518V34.8129C79.5199 30.7178 81.1469 26.7904 84.0427 23.8948C86.9385 20.9991 90.8659 19.3723 94.9611 19.3721H104.188C103.734 20.4861 103.562 21.6945 103.685 22.891C103.808 24.0874 104.223 25.2352 104.894 26.2334C105.565 27.2317 106.471 28.0497 107.533 28.6156C108.594 29.1815 109.778 29.4779 110.981 29.4787H154.343C155.545 29.4778 156.729 29.1814 157.791 28.6155C158.852 28.0496 159.758 27.2315 160.429 26.2333C161.1 25.2351 161.515 24.0873 161.638 22.8909C161.762 21.6945 161.589 20.4861 161.136 19.3721H171.014C175.11 19.3722 179.037 20.9991 181.933 23.895C184.829 26.7909 186.456 30.7186 186.456 34.814V34.8129Z" fill="white"/>
<path d="M90.1333 38.8883C90.5574 38.8883 90.9013 38.5445 90.9013 38.1203C90.9013 37.6962 90.5574 37.3523 90.1333 37.3523C89.7091 37.3523 89.3652 37.6962 89.3652 38.1203C89.3652 38.5445 89.7091 38.8883 90.1333 38.8883Z" fill="#3F3D56"/>
<path d="M92.9497 38.8883C93.3738 38.8883 93.7177 38.5445 93.7177 38.1203C93.7177 37.6962 93.3738 37.3523 92.9497 37.3523C92.5255 37.3523 92.1816 37.6962 92.1816 38.1203C92.1816 38.5445 92.5255 38.8883 92.9497 38.8883Z" fill="#3F3D56"/>
<path d="M95.7661 38.8883C96.1902 38.8883 96.5341 38.5445 96.5341 38.1203C96.5341 37.6962 96.1902 37.3523 95.7661 37.3523C95.3419 37.3523 94.998 37.6962 94.998 38.1203C94.998 38.5445 95.3419 38.8883 95.7661 38.8883Z" fill="#3F3D56"/>
<path d="M176.162 36.0725H168.225V37.0965H176.162V36.0725Z" fill="#3F3D56"/>
<path d="M176.162 37.6084H168.225V38.6324H176.162V37.6084Z" fill="#3F3D56"/>
<path d="M176.162 39.1448H168.225V40.1688H176.162V39.1448Z" fill="#3F3D56"/>
<path d="M135.472 51.3645H96.5573C94.8245 51.3665 93.163 52.1627 91.9374 53.5785C90.7118 54.9944 90.0221 56.9143 90.0195 58.9171V152.965H164.119V84.4741C164.11 75.696 161.089 67.2803 155.719 61.0732C150.348 54.8662 143.067 51.3746 135.472 51.3645Z" fill="white"/>
<path d="M151.293 144.499H102.847C102.428 144.499 102.026 144.701 101.73 145.062C101.434 145.423 101.268 145.912 101.268 146.423C101.268 146.933 101.434 147.423 101.73 147.783C102.026 148.144 102.428 148.347 102.847 148.347H151.293C151.712 148.347 152.114 148.144 152.41 147.783C152.706 147.423 152.872 146.933 152.872 146.423C152.872 145.912 152.706 145.423 152.41 145.062C152.114 144.701 151.712 144.499 151.293 144.499Z" fill="#E4E4E4"/>
<path d="M151.293 171.438H102.847C102.428 171.438 102.026 171.641 101.73 172.002C101.434 172.363 101.268 172.852 101.268 173.362C101.268 173.873 101.434 174.362 101.73 174.723C102.026 175.084 102.428 175.287 102.847 175.287H151.293C151.712 175.287 152.114 175.084 152.41 174.723C152.706 174.362 152.872 173.873 152.872 173.362C152.872 172.852 152.706 172.363 152.41 172.002C152.114 171.641 151.712 171.438 151.293 171.438Z" fill="#E4E4E4"/>
<path d="M151.293 202.226H102.847C102.428 202.226 102.026 202.429 101.73 202.79C101.434 203.151 101.268 203.64 101.268 204.151C101.268 204.661 101.434 205.15 101.73 205.511C102.026 205.872 102.428 206.075 102.847 206.075H151.293C151.712 206.075 152.114 205.872 152.41 205.511C152.706 205.15 152.872 204.661 152.872 204.151C152.872 203.64 152.706 203.151 152.41 202.79C152.114 202.429 151.712 202.226 151.293 202.226Z" fill="#E4E4E4"/>
<path d="M151.292 137.571H102.848C102.429 137.571 102.027 137.774 101.731 138.135C101.434 138.496 101.268 138.985 101.268 139.496C101.268 140.006 101.434 140.495 101.731 140.856C102.027 141.217 102.429 141.42 102.848 141.42H151.292C151.711 141.42 152.113 141.217 152.409 140.856C152.706 140.495 152.872 140.006 152.872 139.496C152.872 138.985 152.706 138.496 152.409 138.135C152.113 137.774 151.711 137.571 151.292 137.571Z" fill="#E4E4E4"/>
<path d="M151.292 164.511H102.848C102.429 164.511 102.027 164.713 101.731 165.074C101.434 165.435 101.268 165.925 101.268 166.435C101.268 166.945 101.434 167.435 101.731 167.796C102.027 168.157 102.429 168.359 102.848 168.359H151.292C151.711 168.359 152.113 168.157 152.409 167.796C152.706 167.435 152.872 166.945 152.872 166.435C152.872 165.925 152.706 165.435 152.409 165.074C152.113 164.713 151.711 164.511 151.292 164.511Z" fill="#E4E4E4"/>
<path d="M151.292 194.529H102.848C102.429 194.529 102.027 194.732 101.731 195.093C101.434 195.454 101.268 195.943 101.268 196.454C101.268 196.964 101.434 197.453 101.731 197.814C102.027 198.175 102.429 198.378 102.848 198.378H151.292C151.711 198.378 152.113 198.175 152.409 197.814C152.706 197.453 152.872 196.964 152.872 196.454C152.872 195.943 152.706 195.454 152.409 195.093C152.113 194.732 151.711 194.529 151.292 194.529Z" fill="#E4E4E4"/>
<path d="M124.147 129.874H102.868C102.443 129.874 102.036 130.077 101.736 130.438C101.436 130.799 101.268 131.288 101.268 131.799C101.268 132.309 101.436 132.798 101.736 133.159C102.036 133.52 102.443 133.723 102.868 133.723H124.147C124.571 133.723 124.978 133.52 125.278 133.159C125.578 132.798 125.747 132.309 125.747 131.799C125.747 131.288 125.578 130.799 125.278 130.438C124.978 130.077 124.571 129.874 124.147 129.874Z" fill="#E4E4E4"/>
<path d="M124.147 156.814H102.868C102.443 156.814 102.036 157.016 101.736 157.377C101.436 157.738 101.268 158.228 101.268 158.738C101.268 159.248 101.436 159.738 101.736 160.099C102.036 160.459 102.443 160.662 102.868 160.662H124.147C124.571 160.662 124.978 160.459 125.278 160.099C125.578 159.738 125.747 159.248 125.747 158.738C125.747 158.228 125.578 157.738 125.278 157.377C124.978 157.016 124.571 156.814 124.147 156.814Z" fill="#E4E4E4"/>
<path d="M124.147 187.602H102.868C102.443 187.602 102.036 187.805 101.736 188.165C101.436 188.526 101.268 189.016 101.268 189.526C101.268 190.036 101.436 190.526 101.736 190.887C102.036 191.248 102.443 191.45 102.868 191.45H124.147C124.571 191.45 124.978 191.248 125.278 190.887C125.578 190.526 125.747 190.036 125.747 189.526C125.747 189.016 125.578 188.526 125.278 188.165C124.978 187.805 124.571 187.602 124.147 187.602Z" fill="#E4E4E4"/>
<path d="M151.292 115.25H102.848C102.429 115.25 102.027 115.412 101.731 115.701C101.434 115.989 101.268 116.381 101.268 116.789C101.268 117.197 101.434 117.589 101.731 117.878C102.027 118.166 102.429 118.329 102.848 118.329H151.292C151.711 118.329 152.113 118.166 152.409 117.878C152.706 117.589 152.872 117.197 152.872 116.789C152.872 116.381 152.706 115.989 152.409 115.701C152.113 115.412 151.711 115.25 151.292 115.25Z" fill="#E4E4E4"/>
<path d="M151.293 108.323H102.847C102.428 108.323 102.026 108.485 101.73 108.773C101.434 109.062 101.268 109.454 101.268 109.862C101.268 110.27 101.434 110.662 101.73 110.95C102.026 111.239 102.428 111.401 102.847 111.401H151.293C151.712 111.401 152.114 111.239 152.41 110.95C152.706 110.662 152.872 110.27 152.872 109.862C152.872 109.454 152.706 109.062 152.41 108.773C152.114 108.485 151.712 108.323 151.293 108.323Z" fill="#E4E4E4"/>
<path d="M124.145 100.625H102.869C102.444 100.625 102.037 100.828 101.737 101.189C101.436 101.55 101.268 102.039 101.268 102.55C101.268 103.06 101.436 103.55 101.737 103.91C102.037 104.271 102.444 104.474 102.869 104.474H124.145C124.57 104.474 124.977 104.271 125.278 103.91C125.578 103.55 125.747 103.06 125.747 102.55C125.747 102.039 125.578 101.55 125.278 101.189C124.977 100.828 124.57 100.625 124.145 100.625Z" fill="#E4E4E4"/>
<path d="M151.292 85.2314H102.848C102.429 85.2314 102.027 85.4342 101.731 85.795C101.434 86.1559 101.268 86.6454 101.268 87.1557C101.268 87.666 101.434 88.1555 101.731 88.5164C102.027 88.8772 102.429 89.08 102.848 89.08H151.292C151.711 89.08 152.113 88.8772 152.409 88.5164C152.706 88.1555 152.872 87.666 152.872 87.1557C152.872 86.6454 152.706 86.1559 152.409 85.795C152.113 85.4342 151.711 85.2314 151.292 85.2314Z" fill="#130160"/>
<path d="M151.292 78.304H102.848C102.429 78.304 102.027 78.4661 101.731 78.7548C101.434 79.0435 101.268 79.4351 101.268 79.8434C101.268 80.2516 101.434 80.6432 101.731 80.9319C102.027 81.2206 102.429 81.3828 102.848 81.3828H151.292C151.711 81.3828 152.113 81.2206 152.409 80.9319C152.706 80.6432 152.872 80.2516 152.872 79.8434C152.872 79.4351 152.706 79.0435 152.409 78.7548C152.113 78.4661 151.711 78.304 151.292 78.304Z" fill="#130160"/>
<path d="M124.145 70.6069H102.869C102.444 70.6069 102.037 70.8097 101.737 71.1705C101.436 71.5314 101.268 72.0208 101.268 72.5312C101.268 73.0415 101.436 73.531 101.737 73.8918C102.037 74.2527 102.444 74.4554 102.869 74.4554H124.145C124.57 74.4554 124.977 74.2527 125.278 73.8918C125.578 73.531 125.747 73.0415 125.747 72.5312C125.747 72.0208 125.578 71.5314 125.278 71.1705C124.977 70.8097 124.57 70.6069 124.145 70.6069Z" fill="#130160"/>
<path d="M287.792 107.593L273.342 86.1272L258.951 97.3962L272.543 107.937L275.336 141.614C274.474 142.52 273.896 143.655 273.672 144.883C273.447 146.11 273.586 147.376 274.071 148.526C274.556 149.676 275.366 150.66 276.403 151.359C277.44 152.058 278.659 152.442 279.911 152.463C281.162 152.484 282.393 152.141 283.453 151.477C284.513 150.813 285.356 149.856 285.88 148.723C286.403 147.59 286.584 146.33 286.401 145.096C286.218 143.862 285.679 142.707 284.849 141.774L287.792 107.593Z" fill="#FFB6B6"/>
<path d="M253.389 66.3415C261.033 64.9166 276.19 88.4584 276.19 88.4584C274.389 88.4967 288.285 102.445 286.806 103.119C282.6 105.035 272.575 106.531 271.02 109.117C270.131 110.596 261.268 100.53 261.268 100.53C261.268 100.53 255.73 95.2796 248.739 88.384C246.726 86.4711 245.231 84.0818 244.395 81.4386C243.558 78.7955 243.406 75.9843 243.953 73.2669C243.953 73.2669 245.744 67.7663 253.389 66.3415Z" fill="#130160"/>
<path d="M260.637 256.815L261.174 244.789C266.77 241.809 273.012 240.234 279.357 240.203C270.624 247.317 271.715 261.03 265.794 270.596C263.925 273.566 261.408 276.078 258.432 277.947C255.455 279.816 252.095 280.994 248.599 281.393L241.291 285.851C240.288 280.281 240.509 274.56 241.939 269.084C243.369 263.607 245.973 258.504 249.573 254.127C251.617 251.691 253.96 249.522 256.548 247.669C258.299 252.268 260.637 256.815 260.637 256.815Z" fill="#E6E1FF"/>
<path d="M241.807 279.662L235.189 279.661L232.041 254.23L241.808 254.231L241.807 279.662Z" fill="#FFB6B6"/>
<path d="M243.494 286.053L222.156 286.052V285.783C222.156 283.588 223.031 281.484 224.589 279.932C226.146 278.38 228.259 277.508 230.461 277.508H230.462L234.359 274.562L241.631 277.509L243.494 277.509L243.494 286.053Z" fill="#2F2E41"/>
<path d="M211.062 279.662L204.445 279.661L201.297 254.23L211.064 254.231L211.062 279.662Z" fill="#FFB6B6"/>
<path d="M212.749 286.053L191.412 286.052V285.783C191.412 283.588 192.287 281.484 193.845 279.932C195.402 278.38 197.515 277.508 199.717 277.508H199.718L203.615 274.562L210.887 277.509L212.75 277.509L212.749 286.053Z" fill="#2F2E41"/>
<path d="M208.198 140.628L251.241 141.7C259.415 146.124 259.54 155.699 256.861 167.067C256.861 167.067 257.765 173.824 255.957 175.625C254.148 177.427 253.244 177.427 254.148 180.58C255.053 183.734 250.275 188.884 250.855 189.462C251.436 190.04 252.792 193.193 252.792 193.193L248.271 218.869C248.271 218.869 245.106 263.465 244.202 264.366C243.298 265.266 242.394 264.366 243.298 266.618C244.202 268.87 245.106 267.969 244.202 268.87C243.401 269.731 242.646 270.633 241.941 271.573H231.011C231.011 271.573 230.187 267.068 230.187 266.618C230.187 266.167 229.282 263.465 229.282 263.014C229.282 262.564 230.082 261.767 230.082 261.767C230.358 260.852 230.544 259.912 230.639 258.96C230.639 258.059 233.351 223.374 233.351 223.374L227.926 178.328L214.815 222.473C214.815 222.473 214.815 261.212 213.911 262.113C213.006 263.014 213.006 262.564 213.459 264.366C213.911 266.167 215.719 265.717 214.363 267.068C213.006 268.42 212.554 266.167 213.006 268.42L213.459 270.672L199.895 270.865C199.895 270.865 198.087 267.068 198.991 265.717C199.895 264.366 199.841 264.734 198.738 262.523C197.635 260.311 197.183 259.861 197.635 259.411C198.087 258.96 198.087 256.564 198.087 256.564L200.347 213.464C200.347 213.464 200.799 167.968 200.799 166.616C200.834 165.921 200.705 165.227 200.424 164.59V162.755L202.156 156.256L208.198 140.628Z" fill="#69687F"/>
<path d="M234.055 51.454C241.441 51.454 247.429 45.4883 247.429 38.1292C247.429 30.7701 241.441 24.8044 234.055 24.8044C226.669 24.8044 220.682 30.7701 220.682 38.1292C220.682 45.4883 226.669 51.454 234.055 51.454Z" fill="#FFB6B6"/>
<path d="M227.368 60.2607C224.487 61.9673 222.764 65.103 221.774 68.2938C219.943 74.2012 218.84 80.3089 218.491 86.482L217.446 104.963L204.504 144.315C215.72 153.771 257.882 146.464 257.882 146.464C257.882 146.464 259.176 146.034 257.882 144.745C256.588 143.455 255.328 144.598 256.622 143.308C257.916 142.019 257.024 143.455 256.593 142.166C256.161 140.876 256.593 141.736 257.024 141.306C257.455 140.876 253.684 137.008 253.684 137.008L257.136 114.419L261.45 68.8573C256.273 62.4098 245.861 58.609 245.861 58.609L243.171 53.7844L229.72 54.8566L227.368 60.2607Z" fill="#130160"/>
<path d="M225.533 30.3093C226.05 30.3133 226.565 30.3806 227.066 30.5098C228.054 30.7463 229.057 30.9139 230.068 31.0113C233.164 31.3015 236.073 32.617 238.331 34.7478C240.588 36.8785 242.064 39.7016 242.523 42.7661C243.3 42.091 245.068 40.8492 246.517 42.0033C246.539 42.0216 246.552 42.0311 246.603 42.007C247.566 41.552 249.275 35.9521 249.326 31.0215C249.354 28.4045 248.94 25.0627 246.816 24.0045L246.704 23.9487L246.674 23.8275C246.533 23.2388 244.947 22.234 242.191 21.4518C237.183 20.0305 229.717 17.2618 225.513 21.3365C225.195 22.7102 224.16 25.6498 223.114 25.983C221.957 26.3519 220.957 26.6701 220.799 28.0852C220.667 30.0989 220.677 32.1193 220.828 34.1316C221.22 32.9002 221.99 31.8225 223.03 31.05C223.769 30.5543 224.642 30.2958 225.533 30.3093Z" fill="#2F2E41"/>
<path d="M200.641 103.934L222.487 89.9946L211.484 75.4214L200.619 88.7374L166.766 90.806C165.876 89.9291 164.749 89.3292 163.522 89.0795C162.296 88.8299 161.022 88.9412 159.858 89.4C158.694 89.8587 157.689 90.6451 156.965 91.6632C156.242 92.6812 155.831 93.887 155.784 95.1336C155.736 96.3801 156.054 97.6134 156.698 98.6833C157.342 99.7531 158.284 100.613 159.41 101.159C160.536 101.704 161.797 101.911 163.039 101.755C164.281 101.599 165.451 101.086 166.405 100.279L200.641 103.934Z" fill="#FFB6B6"/>
<path d="M242.763 70.5381C244.031 78.1833 220.087 92.7825 220.087 92.7825C220.087 90.988 205.796 104.535 205.151 103.047C203.318 98.817 202.029 88.7986 199.467 87.1951C198.002 86.2781 208.29 77.6634 208.29 77.6634C208.29 77.6634 213.676 72.2578 220.743 65.4394C222.705 63.4748 225.134 62.0368 227.804 61.2592C230.474 60.4816 233.299 60.3897 236.014 60.992C236.014 60.992 241.495 62.8929 242.763 70.5381Z" fill="#130160"/>
<path d="M291.483 286.159C291.483 286.243 291.467 286.326 291.435 286.403C291.402 286.481 291.355 286.551 291.296 286.611C291.236 286.67 291.166 286.717 291.088 286.749C291.01 286.781 290.927 286.797 290.842 286.797H140.037C139.867 286.797 139.704 286.73 139.584 286.61C139.464 286.49 139.396 286.328 139.396 286.159C139.396 285.99 139.464 285.827 139.584 285.708C139.704 285.588 139.867 285.521 140.037 285.521H290.842C290.927 285.521 291.01 285.537 291.088 285.569C291.166 285.601 291.236 285.648 291.296 285.707C291.355 285.767 291.402 285.837 291.435 285.915C291.467 285.992 291.483 286.075 291.483 286.159Z" fill="#130160"/>
<circle cx="68.2056" cy="25.2056" r="25.2056" fill="#FCA34D"/>
<path d="M76.0079 31.8289L79.2699 35.0893C79.4221 35.2468 79.5063 35.4578 79.5044 35.6767C79.5024 35.8957 79.4146 36.1052 79.2598 36.26C79.1049 36.4149 78.8955 36.5027 78.6765 36.5046C78.4575 36.5065 78.2466 36.4223 78.089 36.2702L74.827 33.0081C72.6953 34.8345 69.939 35.7642 67.1366 35.6022C64.3342 35.4402 61.7035 34.1991 59.7964 32.1393C57.8894 30.0794 56.8542 27.361 56.9083 24.5545C56.9623 21.7479 58.1013 19.0713 60.0862 17.0864C62.0711 15.1015 64.7476 13.9625 67.5542 13.9085C70.3608 13.8545 73.0792 14.8896 75.139 16.7967C77.1989 18.7037 78.44 21.3345 78.602 24.1369C78.764 26.9393 77.8342 29.6955 76.0079 31.8272V31.8289ZM67.7633 33.9502C70.1997 33.9502 72.5364 32.9823 74.2592 31.2595C75.982 29.5366 76.9499 27.2 76.9499 24.7635C76.9499 22.3271 75.982 19.9904 74.2592 18.2676C72.5364 16.5448 70.1997 15.5769 67.7633 15.5769C65.3269 15.5769 62.9902 16.5448 61.2674 18.2676C59.5446 19.9904 58.5767 22.3271 58.5767 24.7635C58.5767 27.2 59.5446 29.5366 61.2674 31.2595C62.9902 32.9823 65.3269 33.9502 67.7633 33.9502Z" fill="white"/>
</svg>
